<svg width="20" height="20" viewBox="0 0 20 20" fill="none" xmlns="http://www.w3.org/2000/svg">
<g id="Icons / Social / Facebook">
<path id="Path" fill-rule="evenodd" clip-rule="evenodd" d="M18.3333 9.99984C18.3333 5.39817 14.6016 1.6665 9.99996 1.6665C5.39829 1.6665 1.66663 5.39817 1.66663 9.99984C1.66663 14.6015 5.39829 18.3332 9.99996 18.3332C10.0489 18.3332 10.0976 18.3322 10.1464 18.3313V11.8441H8.35608V9.7576H10.1464V8.22219C10.1464 6.44149 11.2335 5.4723 12.8219 5.4723C13.5826 5.4723 14.2364 5.52901 14.427 5.55432V7.41538H13.3317C12.4676 7.41538 12.3002 7.8261 12.3002 8.42869V9.7576H14.3665L14.0972 11.8441H12.3002V18.0112C15.7834 17.0127 18.3333 13.8036 18.3333 9.99984Z" fill="white"/>
</g>
</svg>
