<svg width="20" height="20" viewBox="0 0 20 20" fill="none" xmlns="http://www.w3.org/2000/svg">
<g id="Icons / Social / Instagram">
<path id="Combined Shape" fill-rule="evenodd" clip-rule="evenodd" d="M11.0733 1.66661C12.3923 1.6702 12.7151 1.68309 13.4422 1.7176C14.328 1.75665 14.9338 1.89986 15.4645 2.10502C16.0181 2.31335 16.5229 2.64226 16.9398 3.06554C17.3665 3.48234 17.6921 3.98371 17.9038 4.54372C18.109 5.0713 18.2523 5.68015 18.2913 6.56576C18.3248 7.32768 18.332 7.64463 18.3334 9.14469L18.3335 10.4564C18.3321 12.3073 18.3211 12.6105 18.2848 13.4359C18.2458 14.3216 18.1024 14.9272 17.8973 15.458C17.4642 16.578 16.5784 17.4636 15.458 17.8967C14.9305 18.1018 14.3215 18.245 13.4357 18.2841C12.5466 18.3233 12.2633 18.3329 9.99994 18.3329L9.76489 18.3329C7.71554 18.3322 7.42138 18.3219 6.56416 18.2841C5.67825 18.245 5.07259 18.1018 4.54172 17.8967C3.98809 17.6883 3.48331 17.3594 3.06643 16.9362C2.64306 16.5194 2.31422 16.018 2.10254 15.458C1.89734 14.9304 1.75397 14.3216 1.71492 13.4359C1.68284 12.7058 1.6705 12.3843 1.66711 11.0385L1.66722 8.9309C1.67081 7.61213 1.68371 7.28945 1.71822 6.56245C1.75728 5.67684 1.90052 5.0713 2.10572 4.54054C2.31422 3.98702 2.64306 3.48234 3.06643 3.06554C3.48331 2.63895 3.98478 2.31335 4.54503 2.10171C5.07258 1.89668 5.68156 1.75334 6.56734 1.7143C7.29767 1.68222 7.61924 1.66989 8.96529 1.6665L11.0733 1.66661ZM10.8787 3.18021H9.14178C7.69373 3.18305 7.3913 3.19508 6.64227 3.22834C5.83141 3.26421 5.38846 3.40094 5.09536 3.5149C4.73382 3.64832 4.40815 3.85996 4.13795 4.13672C3.85783 4.40381 3.64614 4.73259 3.51257 5.09406C3.39858 5.3871 3.26183 5.82667 3.22608 6.64067C3.1898 7.45161 3.17883 7.74056 3.1774 9.54431V10.4703C3.17883 12.2737 3.1898 12.5601 3.22608 13.3741C3.26183 14.1848 3.39858 14.6277 3.51257 14.9207C3.64614 15.2821 3.85782 15.6077 4.13464 15.878C4.40166 16.1547 4.73064 16.3664 5.09205 16.4999C5.38515 16.6139 5.8248 16.7506 6.63896 16.7863C7.38529 16.8197 7.68962 16.8317 9.13837 16.8345H10.8743C12.3224 16.8317 12.6247 16.8197 13.3738 16.7863C14.1847 16.7506 14.6276 16.6139 14.9207 16.4999C15.6469 16.2198 16.2233 15.6435 16.5035 14.9174C16.6175 14.6244 16.7542 14.1848 16.7901 13.3708C16.8248 12.5894 16.8364 12.2967 16.8385 10.6795V9.33511C16.8364 7.71726 16.8248 7.42211 16.7901 6.64067C16.7542 5.82985 16.6175 5.3871 16.5035 5.09406C16.3699 4.73259 16.1582 4.40699 15.8814 4.13672C15.6144 3.85996 15.2854 3.64832 14.924 3.5149C14.6309 3.40094 14.1912 3.26421 13.3771 3.22834C12.6307 3.19508 12.3288 3.18305 10.8787 3.18021ZM10.0031 5.71919C12.3675 5.71919 14.2856 7.63693 14.2856 10.0008C14.2856 12.3648 12.3675 14.2825 10.0031 14.2825C7.63886 14.2825 5.72061 12.3648 5.72061 10.0008C5.72061 7.63693 7.63886 5.71919 10.0031 5.71919ZM10.0031 7.22344C8.46931 7.22344 7.22516 8.46722 7.22516 10.0008C7.22516 11.5345 8.46931 12.7783 10.0031 12.7783C11.5371 12.7783 12.7811 11.5345 12.7811 10.0008C12.7811 8.46722 11.5371 7.22344 10.0031 7.22344ZM14.455 4.55033C15.0072 4.55033 15.4548 4.99778 15.4548 5.5499C15.4548 6.1019 15.0072 6.54948 14.455 6.54948C13.9028 6.54948 13.4552 6.1019 13.4552 5.5499C13.4552 4.99778 13.9028 4.55033 14.455 4.55033Z" fill="white"/>
</g>
</svg>
