<svg width="20" height="20" viewBox="0 0 20 20" fill="none" xmlns="http://www.w3.org/2000/svg">
<g id="Icons / Social / Twitter">
<path id="Path" fill-rule="evenodd" clip-rule="evenodd" d="M18.3333 4.91196C17.7135 5.17965 17.0531 5.35709 16.3645 5.44324C17.0729 5.02683 17.6135 4.37247 17.8677 3.58375C17.2073 3.97144 16.4781 4.24529 15.701 4.39811C15.0739 3.74068 14.1802 3.3335 13.2052 3.3335C11.3135 3.3335 9.79058 4.84529 9.79058 6.69862C9.79058 6.96529 9.8135 7.2217 9.86975 7.4658C7.02913 7.32939 4.51558 5.98888 2.82704 3.94683C2.53225 4.45042 2.35933 5.02683 2.35933 5.64734C2.35933 6.81247 2.96871 7.84529 3.87704 8.44324C3.32808 8.43298 2.78954 8.27606 2.33329 8.02888C2.33329 8.03914 2.33329 8.05247 2.33329 8.0658C2.33329 9.70068 3.51767 11.0586 5.07079 11.3714C4.79267 11.4463 4.48954 11.4822 4.17496 11.4822C3.95621 11.4822 3.73538 11.4699 3.52808 11.4248C3.97079 12.7571 5.22704 13.7366 6.72079 13.7684C5.55829 14.6638 4.08225 15.2032 2.48433 15.2032C2.20413 15.2032 1.93538 15.1909 1.66663 15.1571C3.18017 16.1181 4.97392 16.6668 6.90829 16.6668C13.1958 16.6668 16.6333 11.5386 16.6333 7.0935C16.6333 6.94478 16.6281 6.80119 16.6208 6.65862C17.2989 6.18478 17.8687 5.59298 18.3333 4.91196Z" fill="white"/>
</g>
</svg>
