<svg width="64" height="64" viewBox="0 0 64 64" fill="none" xmlns="http://www.w3.org/2000/svg">
<g id="Icons/Navigation/angle-left">
<path id="Vector" d="M30.1067 32L39.5467 22.56C40.0433 22.0604 40.3221 21.3845 40.3221 20.68C40.3221 19.9755 40.0433 19.2996 39.5467 18.8C39.2988 18.5501 39.0038 18.3517 38.6789 18.2163C38.3539 18.0809 38.0054 18.0112 37.6533 18.0112C37.3013 18.0112 36.9528 18.0809 36.6278 18.2163C36.3028 18.3517 36.0079 18.5501 35.76 18.8L24.4533 30.1067C24.2034 30.3546 24.005 30.6495 23.8696 30.9745C23.7342 31.2994 23.6645 31.648 23.6645 32C23.6645 32.352 23.7342 32.7006 23.8696 33.0255C24.005 33.3505 24.2034 33.6454 24.4533 33.8933L35.76 45.3333C36.0092 45.5805 36.3047 45.776 36.6296 45.9087C36.9545 46.0414 37.3024 46.1087 37.6533 46.1067C38.0043 46.1087 38.3522 46.0414 38.6771 45.9087C39.002 45.776 39.2975 45.5805 39.5467 45.3333C40.0433 44.8337 40.3221 44.1578 40.3221 43.4533C40.3221 42.7488 40.0433 42.073 39.5467 41.5733L30.1067 32Z" fill="white"/>
</g>
</svg>
