<svg width="10" height="6" viewBox="0 0 10 6" fill="none" xmlns="http://www.w3.org/2000/svg">
<path d="M9.16658 4.17503L5.59158 0.641701C5.51411 0.563594 5.42195 0.501599 5.3204 0.459292C5.21885 0.416985 5.10993 0.395203 4.99992 0.395203C4.88991 0.395203 4.78098 0.416985 4.67944 0.459292C4.57789 0.501599 4.48572 0.563594 4.40825 0.641701L0.874917 4.17503C0.79681 4.2525 0.734814 4.34467 0.692507 4.44622C0.6502 4.54777 0.628418 4.65669 0.628418 4.7667C0.628418 4.87671 0.6502 4.98563 0.692507 5.08718C0.734814 5.18873 0.79681 5.2809 0.874917 5.35837C1.03105 5.51358 1.24226 5.60069 1.46242 5.60069C1.68257 5.60069 1.89378 5.51358 2.04992 5.35837L4.99992 2.40837L7.94992 5.35837C8.10513 5.51232 8.31463 5.59911 8.53325 5.60003C8.64292 5.60067 8.75164 5.57965 8.85317 5.53818C8.9547 5.49671 9.04705 5.4356 9.12492 5.35837C9.20581 5.28369 9.27111 5.19371 9.31703 5.09365C9.36295 4.99359 9.38859 4.88542 9.39246 4.77539C9.39634 4.66536 9.37837 4.55565 9.3396 4.45261C9.30083 4.34956 9.24203 4.25522 9.16658 4.17503Z" fill="black" fill-opacity="0.3"/>
</svg>
