<svg width="20" height="20" viewBox="0 0 20 20" fill="none" xmlns="http://www.w3.org/2000/svg">
<g id="Icons/Base/shopping-bag">
<path id="Vector" d="M15.8334 5.83333H13.3334V5C13.3334 4.11595 12.9822 3.2681 12.3571 2.64298C11.7319 2.01786 10.8841 1.66667 10 1.66667C9.11598 1.66667 8.26814 2.01786 7.64302 2.64298C7.0179 3.2681 6.66671 4.11595 6.66671 5V5.83333H4.16671C3.94569 5.83333 3.73373 5.92113 3.57745 6.07741C3.42117 6.23369 3.33337 6.44565 3.33337 6.66667V15.8333C3.33337 16.4964 3.59677 17.1323 4.06561 17.6011C4.53445 18.0699 5.17033 18.3333 5.83337 18.3333H14.1667C14.8297 18.3333 15.4656 18.0699 15.9345 17.6011C16.4033 17.1323 16.6667 16.4964 16.6667 15.8333V6.66667C16.6667 6.44565 16.5789 6.23369 16.4226 6.07741C16.2663 5.92113 16.0544 5.83333 15.8334 5.83333ZM8.33337 5C8.33337 4.55797 8.50897 4.13405 8.82153 3.82149C9.13409 3.50893 9.55801 3.33333 10 3.33333C10.4421 3.33333 10.866 3.50893 11.1786 3.82149C11.4911 4.13405 11.6667 4.55797 11.6667 5V5.83333H8.33337V5ZM15 15.8333C15 16.0543 14.9122 16.2663 14.756 16.4226C14.5997 16.5789 14.3877 16.6667 14.1667 16.6667H5.83337C5.61236 16.6667 5.4004 16.5789 5.24412 16.4226C5.08784 16.2663 5.00004 16.0543 5.00004 15.8333V7.5H6.66671V8.33333C6.66671 8.55435 6.7545 8.76631 6.91078 8.92259C7.06707 9.07887 7.27903 9.16667 7.50004 9.16667C7.72105 9.16667 7.93302 9.07887 8.0893 8.92259C8.24558 8.76631 8.33337 8.55435 8.33337 8.33333V7.5H11.6667V8.33333C11.6667 8.55435 11.7545 8.76631 11.9108 8.92259C12.0671 9.07887 12.279 9.16667 12.5 9.16667C12.7211 9.16667 12.933 9.07887 13.0893 8.92259C13.2456 8.76631 13.3334 8.55435 13.3334 8.33333V7.5H15V15.8333Z" fill="#2D74FF"/>
</g>
</svg>
