<svg width="20" height="20" viewBox="0 0 20 20" fill="none" xmlns="http://www.w3.org/2000/svg">
<g id="Icons/Base/clock">
<path id="Vector" d="M12.582 10.5283L10.8337 9.51916V5.83332C10.8337 5.61231 10.7459 5.40035 10.5896 5.24407C10.4333 5.08779 10.2213 4.99999 10.0003 4.99999C9.77932 4.99999 9.56735 5.08779 9.41107 5.24407C9.25479 5.40035 9.167 5.61231 9.167 5.83332V9.99999C9.167 10.1463 9.20551 10.29 9.27865 10.4166C9.35179 10.5433 9.45698 10.6485 9.58366 10.7217L11.7487 11.9717C11.8435 12.0272 11.9483 12.0635 12.0572 12.0784C12.1661 12.0933 12.2769 12.0865 12.3831 12.0584C12.4894 12.0303 12.589 11.9815 12.6763 11.9147C12.7636 11.848 12.8368 11.7646 12.8918 11.6694C12.9468 11.5743 12.9823 11.4691 12.9965 11.3602C13.0107 11.2512 13.0031 11.1405 12.9743 11.0344C12.9455 10.9284 12.8961 10.829 12.8287 10.7422C12.7614 10.6553 12.6775 10.5826 12.582 10.5283ZM10.0003 1.66666C8.35215 1.66666 6.74099 2.1554 5.37058 3.07108C4.00017 3.98675 2.93206 5.28824 2.30133 6.81096C1.6706 8.33368 1.50558 10.0092 1.82712 11.6257C2.14866 13.2423 2.94234 14.7271 4.10777 15.8925C5.27321 17.058 6.75807 17.8517 8.37458 18.1732C9.99109 18.4947 11.6666 18.3297 13.1894 17.699C14.7121 17.0683 16.0136 16.0002 16.9292 14.6297C17.8449 13.2593 18.3337 11.6482 18.3337 9.99999C18.3312 7.7906 17.4525 5.67239 15.8902 4.11011C14.3279 2.54784 12.2097 1.66908 10.0003 1.66666ZM10.0003 16.6667C8.68179 16.6667 7.39286 16.2757 6.29653 15.5431C5.2002 14.8106 4.34572 13.7694 3.84113 12.5512C3.33655 11.333 3.20453 9.99259 3.46176 8.69939C3.719 7.40618 4.35393 6.2183 5.28628 5.28594C6.21863 4.35359 7.40652 3.71866 8.69973 3.46142C9.99293 3.20419 11.3334 3.33621 12.5516 3.84079C13.7697 4.34538 14.8109 5.19986 15.5435 6.29619C16.276 7.39252 16.667 8.68145 16.667 9.99999C16.6648 11.7674 15.9617 13.4618 14.7119 14.7116C13.4622 15.9614 11.7678 16.6645 10.0003 16.6667Z" fill="black" fill-opacity="0.3"/>
</g>
</svg>
